<?xml version="1.0" encoding="utf-8"?>
<!-- Generator: Adobe Illustrator 16.0.0, SVG Export Plug-In . SVG Version: 6.00 Build 0)  -->
<!DOCTYPE svg PUBLIC "-//W3C//DTD SVG 1.1//EN" "http://www.w3.org/Graphics/SVG/1.1/DTD/svg11.dtd">
<svg version="1.1" xmlns="http://www.w3.org/2000/svg" xmlns:xlink="http://www.w3.org/1999/xlink" x="0px" y="0px" width="300px"
     height="300px" viewBox="0 0 300 300" enable-background="new 0 0 300 300" xml:space="preserve">

<g id="Layer_1">
    <g>
        <defs>
            <path id="SVGID_1_" d="M150.102,49.666l98.367,98.442l-98.367,98.443l-98.368-98.443L150.102,49.666z M144.636,55.134
                L144.636,55.134h10.93l-98.368,98.442v-10.937l98.368,98.443h-10.93l98.368-98.443v10.937L144.636,55.134z"/>
        </defs>
        <clipPath id="SVGID_2_">
            <use xlink:href="#SVGID_1_"  overflow="visible"/>
        </clipPath>
        <g clip-path="url(#SVGID_2_)">
            <defs>
                <rect id="SVGID_3_" x="-103.728" y="-105.892" width="512" height="512"/>
            </defs>
            <clipPath id="SVGID_4_">
                <use xlink:href="#SVGID_3_"  overflow="visible"/>
            </clipPath>
            <rect x="46.734" y="44.666" clip-path="url(#SVGID_4_)" fill="#FFFFFF" width="206.735" height="206.885"/>
        </g>
    </g>
    <g>
        <defs>
            <path id="SVGID_5_" d="M199.32,49.67L199.32,49.67l98.408,98.484l-98.352,98.426l-30.133-30.156l68.289-68.34l-68.275-68.328
                L199.32,49.67z M204.785,55.139L204.785,55.139l-30.062,30.085V74.287l68.275,68.327l5.465,5.47l-5.465,5.469l-68.289,68.34
                v-10.938l30.133,30.156h-10.93l98.352-98.426v10.938l-98.408-98.484H204.785z"/>
        </defs>
        <clipPath id="SVGID_6_">
            <use xlink:href="#SVGID_5_"  overflow="visible"/>
        </clipPath>
        <g clip-path="url(#SVGID_6_)">
            <defs>
                <rect id="SVGID_7_" x="-103.728" y="-105.892" width="512" height="512"/>
            </defs>
            <clipPath id="SVGID_8_">
                <use xlink:href="#SVGID_7_"  overflow="visible"/>
            </clipPath>
            <rect x="164.244" y="44.67" clip-path="url(#SVGID_8_)" fill="#FFFFFF" width="138.484" height="206.91"/>
        </g>
    </g>
    <g>
        <defs>
            <path id="SVGID_9_" d="M130.743,79.967l-68.275,68.328l68.289,68.34l-30.133,30.156L2.272,148.365l98.408-98.483L130.743,79.967z
                 M95.215,55.351L95.215,55.351h10.93L7.737,153.834v-10.938l98.351,98.426h-10.93l30.133-30.156v10.938l-68.289-68.34
                l-5.465-5.469l5.465-5.469l68.275-68.328v10.938L95.215,55.351z"/>
        </defs>
        <clipPath id="SVGID_10_">
            <use xlink:href="#SVGID_9_"  overflow="visible"/>
        </clipPath>
        <g clip-path="url(#SVGID_10_)">
            <defs>
                <rect id="SVGID_11_" x="-103.728" y="-105.892" width="512" height="512"/>
            </defs>
            <clipPath id="SVGID_12_">
                <use xlink:href="#SVGID_11_"  overflow="visible"/>
            </clipPath>
            <rect x="-2.728" y="44.881" clip-path="url(#SVGID_12_)" fill="#FFFFFF" width="138.484" height="206.91"/>
        </g>
    </g>
    <g>
        <defs>
            <polygon id="SVGID_13_" points="108.179,193.768 195.512,106.369 198.244,103.634 192.779,98.166 190.047,100.9 102.714,188.299
                99.982,191.033 105.447,196.502             "/>
        </defs>
        <clipPath id="SVGID_14_">
            <use xlink:href="#SVGID_13_"  overflow="visible"/>
        </clipPath>
        <g clip-path="url(#SVGID_14_)">
            <defs>
                <rect id="SVGID_15_" x="-103.728" y="-105.892" width="512" height="512"/>
            </defs>
            <clipPath id="SVGID_16_">
                <use xlink:href="#SVGID_15_"  overflow="visible"/>
            </clipPath>
            <rect x="94.982" y="93.166" clip-path="url(#SVGID_16_)" fill="#FFFFFF" width="108.262" height="108.336"/>
        </g>
    </g>
    <g>
        <defs>
            <rect id="SVGID_17_" x="124.382" y="120.125" width="49.462" height="7.734"/>
        </defs>
        <clipPath id="SVGID_18_">
            <use xlink:href="#SVGID_17_"  overflow="visible"/>
        </clipPath>
        <g clip-path="url(#SVGID_18_)">
            <defs>
                <rect id="SVGID_19_" x="-103.728" y="-105.892" width="512" height="512"/>
            </defs>
            <clipPath id="SVGID_20_">
                <use xlink:href="#SVGID_19_"  overflow="visible"/>
            </clipPath>
            <rect x="119.382" y="115.125" clip-path="url(#SVGID_20_)" fill="#FFFFFF" width="59.462" height="17.734"/>
        </g>
    </g>
    <g>
        <defs>
            <rect id="SVGID_21_" x="124.382" y="168.355" width="49.462" height="7.734"/>
        </defs>
        <clipPath id="SVGID_22_">
            <use xlink:href="#SVGID_21_"  overflow="visible"/>
        </clipPath>
        <g clip-path="url(#SVGID_22_)">
            <defs>
                <rect id="SVGID_23_" x="-103.728" y="-105.892" width="512" height="512"/>
            </defs>
            <clipPath id="SVGID_24_">
                <use xlink:href="#SVGID_23_"  overflow="visible"/>
            </clipPath>
            <rect x="119.382" y="163.355" clip-path="url(#SVGID_24_)" fill="#FFFFFF" width="59.462" height="17.734"/>
        </g>
    </g>
</g>
</svg>
