<?xml version="1.0" encoding="UTF-8" standalone="no"?>
<svg width="48px" height="48px" viewBox="0 0 48 48" version="1.1" xmlns="http://www.w3.org/2000/svg" xmlns:xlink="http://www.w3.org/1999/xlink">
    <!-- Generator: Sketch 3.7 (28169) - http://www.bohemiancoding.com/sketch -->
    <title>pinterest-light</title>
    <desc>Created with Sketch.</desc>
    <defs></defs>
    <g id="Social-Icons" stroke="none" stroke-width="1" fill="none" fill-rule="evenodd">
        <g id="Artboard-2" transform="translate(-50.000000, -50.000000)">
            <g id="pinterest-light" transform="translate(52.000000, 52.000000)">
                <rect id="Rectangle" stroke="#FFFFFF" stroke-width="3" x="0" y="0" width="44" height="44"></rect>
                <path d="M20.6360265,16.4555815 C21.0312615,17.0375525 21.2301218,17.7306866 21.2301218,18.5402149 C21.2301218,19.3732835 21.0312615,20.044185 20.631055,20.5503036 C20.4048514,20.8340962 20.0754889,21.0943484 19.6392391,21.3284447 C20.3016926,21.5834657 20.8000863,21.9849603 21.1393918,22.5342363 C21.4762115,23.0822046 21.6439999,23.7504904 21.6439999,24.5351705 C21.6439999,25.3433909 21.4525968,26.0705278 21.066062,26.7113498 C20.8212152,27.1363849 20.5142246,27.4960299 20.1475758,27.7863615 C19.7336977,28.1198505 19.2464899,28.3474078 18.6822237,28.4716488 C18.1179574,28.5958898 17.5077048,28.6560486 16.847737,28.6560486 L11,28.6560486 L11,15 L17.2715581,15 C18.8549836,15.026156 19.9748159,15.510042 20.6360265,16.4555815 L20.6360265,16.4555815 Z M13.5876702,17.3723494 L13.5876702,20.3855208 L16.7433353,20.3855208 C17.3051158,20.3855208 17.7637375,20.2717422 18.1167146,20.0454928 C18.465963,19.8205511 18.6436945,19.4203643 18.6436945,18.8475479 C18.6436945,18.2106492 18.4112764,17.7908454 17.9464404,17.5855208 C17.5449911,17.4442784 17.0341686,17.3723494 16.41273,17.3723494 L13.5876702,17.3723494 L13.5876702,17.3723494 Z M13.5876702,22.6440915 L13.5876702,26.285007 L16.7383638,26.285007 C17.3013872,26.285007 17.7401228,26.2052312 18.0533278,26.0456796 C18.6225656,25.7475012 18.9059416,25.1799159 18.9059416,24.3416161 C18.9059416,23.628865 18.6325086,23.1423634 18.0806711,22.8755722 C17.7711947,22.7277908 17.3386735,22.6493227 16.7831074,22.6440915 L13.5876702,22.6440915 L13.5876702,22.6440915 Z M29.4902834,18.7638487 C30.161437,19.0790285 30.7132745,19.5773003 31.1470386,20.2573564 C31.5435164,20.8576366 31.7983062,21.5533863 31.9138938,22.3446053 C31.9810092,22.8088744 32.0095953,23.4771602 31.9971666,24.3494629 L25.0059826,24.3494629 C25.0469975,25.3630079 25.3788457,26.0731434 26.0102273,26.4798692 C26.3942764,26.7335824 26.8553838,26.8591312 27.3947925,26.8591312 C27.9640302,26.8591312 28.4301092,26.7061186 28.7868149,26.3974778 C28.9831895,26.2300794 29.1547065,25.9985988 29.3038518,25.7017282 L31.8654216,25.7017282 C31.7983062,26.3007006 31.4875869,26.9088277 30.9357495,27.5287249 C30.0769214,28.509575 28.8725734,29 27.3264342,29 C26.0487565,29 24.9202241,28.5867352 23.9470513,27.7575899 C22.9676641,26.9297525 22.4816991,25.5814106 22.4816991,23.7164876 C22.4816991,21.9653433 22.9216776,20.6248482 23.8016346,19.6897711 C24.6840774,18.7586175 25.8275244,18.290425 27.2332185,18.290425 C28.0684319,18.290425 28.8216155,18.447361 29.4902834,18.7638487 L29.4902834,18.7638487 Z M25.7367944,21.044652 C25.3825744,21.4291453 25.1588565,21.9509575 25.0681265,22.6074731 L29.3920961,22.6074731 C29.3473525,21.9064923 29.1223917,21.3755255 28.724671,21.011957 C28.3219788,20.6496964 27.8260709,20.4679122 27.2344613,20.4679122 C26.5918938,20.4679122 26.0910144,20.6601588 25.7367944,21.044652 L25.7367944,21.044652 Z M24.4193446,17.3370388 L29.979977,17.3370388 L29.979977,15.6382064 L24.4193446,15.6382064 L24.4193446,17.3370388 Z" id="Shape" fill="#FFFFFF"></path>
            </g>
        </g>
    </g>
</svg>